<mxfile host="app.diagrams.net" modified="2022-07-17T20:12:34.150Z" agent="5.0 (Windows NT 10.0; Win64; x64) AppleWebKit/537.36 (KHTML, like Gecko) Chrome/103.0.5060.114 Safari/537.36 Edg/103.0.1264.62" etag="bTgRYy51SDq4PIvmJ_I-" version="20.1.1" type="github">
  <diagram id="C5RBs43oDa-KdzZeNtuy" name="Page-1">
    <mxGraphModel dx="1028" dy="622" grid="1" gridSize="10" guides="1" tooltips="1" connect="1" arrows="1" fold="1" page="1" pageScale="1" pageWidth="827" pageHeight="1169" math="0" shadow="0">
      <root>
        <mxCell id="WIyWlLk6GJQsqaUBKTNV-0" />
        <mxCell id="WIyWlLk6GJQsqaUBKTNV-1" parent="WIyWlLk6GJQsqaUBKTNV-0" />
        <mxCell id="WIyWlLk6GJQsqaUBKTNV-2" value="" style="rounded=0;html=1;jettySize=auto;orthogonalLoop=1;fontSize=11;endArrow=block;endFill=0;endSize=8;strokeWidth=1;shadow=0;labelBackgroundColor=none;edgeStyle=orthogonalEdgeStyle;" parent="WIyWlLk6GJQsqaUBKTNV-1" source="WIyWlLk6GJQsqaUBKTNV-3" edge="1">
          <mxGeometry relative="1" as="geometry">
            <mxPoint x="100" y="190" as="targetPoint" />
          </mxGeometry>
        </mxCell>
        <mxCell id="d51sINgZixLcpiOayRy7-5" value="" style="edgeStyle=orthogonalEdgeStyle;rounded=0;orthogonalLoop=1;jettySize=auto;html=1;" edge="1" parent="WIyWlLk6GJQsqaUBKTNV-1" source="WIyWlLk6GJQsqaUBKTNV-3" target="d51sINgZixLcpiOayRy7-4">
          <mxGeometry relative="1" as="geometry" />
        </mxCell>
        <mxCell id="WIyWlLk6GJQsqaUBKTNV-3" value="Initial Main Commit" style="rounded=1;whiteSpace=wrap;html=1;fontSize=12;glass=0;strokeWidth=1;shadow=0;" parent="WIyWlLk6GJQsqaUBKTNV-1" vertex="1">
          <mxGeometry x="40" y="100" width="120" height="40" as="geometry" />
        </mxCell>
        <mxCell id="d51sINgZixLcpiOayRy7-27" value="" style="edgeStyle=orthogonalEdgeStyle;rounded=0;orthogonalLoop=1;jettySize=auto;html=1;" edge="1" parent="WIyWlLk6GJQsqaUBKTNV-1" source="d51sINgZixLcpiOayRy7-4" target="d51sINgZixLcpiOayRy7-26">
          <mxGeometry relative="1" as="geometry" />
        </mxCell>
        <mxCell id="d51sINgZixLcpiOayRy7-4" value="Main Commit v2 w/ Branch 1&#39;s changes" style="rounded=1;whiteSpace=wrap;html=1;fontSize=12;glass=0;strokeWidth=1;shadow=0;" vertex="1" parent="WIyWlLk6GJQsqaUBKTNV-1">
          <mxGeometry x="500" y="100" width="120" height="40" as="geometry" />
        </mxCell>
        <mxCell id="d51sINgZixLcpiOayRy7-13" value="" style="edgeStyle=orthogonalEdgeStyle;rounded=0;orthogonalLoop=1;jettySize=auto;html=1;" edge="1" parent="WIyWlLk6GJQsqaUBKTNV-1" source="d51sINgZixLcpiOayRy7-11" target="d51sINgZixLcpiOayRy7-12">
          <mxGeometry relative="1" as="geometry" />
        </mxCell>
        <mxCell id="d51sINgZixLcpiOayRy7-15" value="" style="edgeStyle=orthogonalEdgeStyle;rounded=0;orthogonalLoop=1;jettySize=auto;html=1;" edge="1" parent="WIyWlLk6GJQsqaUBKTNV-1" source="d51sINgZixLcpiOayRy7-11" target="d51sINgZixLcpiOayRy7-14">
          <mxGeometry relative="1" as="geometry" />
        </mxCell>
        <mxCell id="d51sINgZixLcpiOayRy7-11" value="Branch 1" style="rounded=0;whiteSpace=wrap;html=1;" vertex="1" parent="WIyWlLk6GJQsqaUBKTNV-1">
          <mxGeometry x="40" y="190" width="120" height="60" as="geometry" />
        </mxCell>
        <mxCell id="d51sINgZixLcpiOayRy7-19" value="" style="edgeStyle=orthogonalEdgeStyle;rounded=0;orthogonalLoop=1;jettySize=auto;html=1;" edge="1" parent="WIyWlLk6GJQsqaUBKTNV-1" source="d51sINgZixLcpiOayRy7-12" target="d51sINgZixLcpiOayRy7-18">
          <mxGeometry relative="1" as="geometry" />
        </mxCell>
        <mxCell id="d51sINgZixLcpiOayRy7-12" value="Branch 1 Commit v1" style="rounded=0;whiteSpace=wrap;html=1;" vertex="1" parent="WIyWlLk6GJQsqaUBKTNV-1">
          <mxGeometry x="184" y="190" width="120" height="60" as="geometry" />
        </mxCell>
        <mxCell id="d51sINgZixLcpiOayRy7-17" value="" style="edgeStyle=orthogonalEdgeStyle;rounded=0;orthogonalLoop=1;jettySize=auto;html=1;" edge="1" parent="WIyWlLk6GJQsqaUBKTNV-1" source="d51sINgZixLcpiOayRy7-14" target="d51sINgZixLcpiOayRy7-16">
          <mxGeometry relative="1" as="geometry" />
        </mxCell>
        <mxCell id="d51sINgZixLcpiOayRy7-14" value="Branch 2" style="ellipse;whiteSpace=wrap;html=1;rounded=0;" vertex="1" parent="WIyWlLk6GJQsqaUBKTNV-1">
          <mxGeometry x="40" y="300" width="120" height="60" as="geometry" />
        </mxCell>
        <mxCell id="d51sINgZixLcpiOayRy7-25" value="" style="edgeStyle=orthogonalEdgeStyle;rounded=0;orthogonalLoop=1;jettySize=auto;html=1;" edge="1" parent="WIyWlLk6GJQsqaUBKTNV-1" source="d51sINgZixLcpiOayRy7-16" target="d51sINgZixLcpiOayRy7-24">
          <mxGeometry relative="1" as="geometry" />
        </mxCell>
        <mxCell id="d51sINgZixLcpiOayRy7-16" value="Branch 2 Commit v1" style="ellipse;whiteSpace=wrap;html=1;rounded=0;" vertex="1" parent="WIyWlLk6GJQsqaUBKTNV-1">
          <mxGeometry x="340" y="300" width="120" height="60" as="geometry" />
        </mxCell>
        <mxCell id="d51sINgZixLcpiOayRy7-18" value="Branch 1 Commit v2" style="rounded=0;whiteSpace=wrap;html=1;" vertex="1" parent="WIyWlLk6GJQsqaUBKTNV-1">
          <mxGeometry x="340" y="190" width="120" height="60" as="geometry" />
        </mxCell>
        <mxCell id="d51sINgZixLcpiOayRy7-20" value="Commit to Main Branch" style="endArrow=classic;html=1;rounded=0;" edge="1" parent="WIyWlLk6GJQsqaUBKTNV-1" target="d51sINgZixLcpiOayRy7-4">
          <mxGeometry relative="1" as="geometry">
            <mxPoint x="460" y="219.5" as="sourcePoint" />
            <mxPoint x="620" y="219.5" as="targetPoint" />
            <Array as="points">
              <mxPoint x="543" y="220" />
            </Array>
          </mxGeometry>
        </mxCell>
        <mxCell id="d51sINgZixLcpiOayRy7-24" value="Branch 2 Commit v1" style="ellipse;whiteSpace=wrap;html=1;rounded=0;" vertex="1" parent="WIyWlLk6GJQsqaUBKTNV-1">
          <mxGeometry x="540" y="300" width="120" height="60" as="geometry" />
        </mxCell>
        <mxCell id="d51sINgZixLcpiOayRy7-26" value="Main Commit v3 w/ Branch 2&#39;s changes" style="rounded=1;whiteSpace=wrap;html=1;fontSize=12;glass=0;strokeWidth=1;shadow=0;" vertex="1" parent="WIyWlLk6GJQsqaUBKTNV-1">
          <mxGeometry x="670" y="100" width="120" height="40" as="geometry" />
        </mxCell>
        <mxCell id="d51sINgZixLcpiOayRy7-28" value="Commit to Main Branch" style="endArrow=classic;html=1;rounded=0;entryX=0.75;entryY=1;entryDx=0;entryDy=0;" edge="1" parent="WIyWlLk6GJQsqaUBKTNV-1" target="d51sINgZixLcpiOayRy7-26">
          <mxGeometry relative="1" as="geometry">
            <mxPoint x="659.9999999999998" y="329.5" as="sourcePoint" />
            <mxPoint x="756.6000000000001" y="249.9999999999999" as="targetPoint" />
            <Array as="points">
              <mxPoint x="743" y="330" />
            </Array>
          </mxGeometry>
        </mxCell>
      </root>
    </mxGraphModel>
  </diagram>
</mxfile>
